<svg xmlns="http://www.w3.org/2000/svg" xmlns:xlink="http://www.w3.org/1999/xlink" width="500" zoomAndPan="magnify" viewBox="0 0 375 374.999991" height="500" preserveAspectRatio="xMidYMid meet" version="1.0"><defs><g/><clipPath id="0402dc450c"><path d="M 17 29 L 336 29 L 336 236 L 17 236 Z M 17 29 " clip-rule="nonzero"/></clipPath><clipPath id="ea42229f80"><path d="M -8.269531 59.042969 L 308.773438 -0.0351562 L 341.609375 176.183594 L 24.566406 235.261719 Z M -8.269531 59.042969 " clip-rule="nonzero"/></clipPath><clipPath id="69e5a72ace"><path d="M -8.269531 59.042969 L 308.773438 -0.0351562 L 364.550781 299.3125 L 47.507812 358.390625 Z M -8.269531 59.042969 " clip-rule="nonzero"/></clipPath><clipPath id="ca9e8f5054"><path d="M 52.546875 168.191406 L 337.546875 168.191406 L 337.546875 369.941406 L 52.546875 369.941406 Z M 52.546875 168.191406 " clip-rule="nonzero"/></clipPath><clipPath id="97e070a085"><rect x="0" width="227" y="0" height="132"/></clipPath></defs><g clip-path="url(#0402dc450c)"><g clip-path="url(#ea42229f80)"><g clip-path="url(#69e5a72ace)"><path fill="#ff3131" d="M 158.550781 39.90625 C 158.53125 39.804688 158.542969 39.710938 158.523438 39.609375 L 157.59375 34.628906 C 156.953125 31.183594 153.617188 28.917969 150.160156 29.5625 C 146.699219 30.207031 144.40625 33.519531 145.046875 36.96875 L 145.976562 41.960938 C 145.996094 42.0625 146.039062 42.144531 146.058594 42.246094 C 64.554688 60.332031 9.285156 130.457031 18.648438 203.5 L 18.851562 203.464844 C 25.371094 190.878906 38.683594 180.898438 55.347656 177.792969 C 71.722656 174.738281 87.476562 179.042969 98.082031 188.109375 C 104.722656 175.828125 117.855469 166.144531 134.230469 163.09375 C 148.285156 160.472656 161.871094 163.28125 172.144531 169.863281 L 193.851562 286.347656 L 193.050781 286.496094 C 197.515625 310.449219 220.554688 326.261719 244.519531 321.796875 C 268.484375 317.328125 284.285156 294.296875 279.816406 270.328125 L 269.601562 272.234375 C 273.015625 290.546875 260.929688 308.167969 242.617188 311.582031 C 224.300781 314.992188 206.679688 302.90625 203.269531 284.59375 L 201.898438 284.847656 L 180.191406 168.363281 C 187.410156 158.535156 199.070312 151.011719 213.125 148.390625 C 229.5 145.339844 245.25 149.644531 255.859375 158.710938 C 262.5 146.429688 275.632812 136.742188 292.007812 133.691406 C 308.671875 130.585938 324.6875 135.105469 335.300781 144.496094 L 335.503906 144.457031 C 317.917969 72.945312 241.101562 27.433594 158.550781 39.90625 Z M 158.550781 39.90625 " fill-opacity="1" fill-rule="nonzero"/></g></g></g><g clip-path="url(#ca9e8f5054)"><path fill="#ff0000" d="M 337.183594 303.265625 C 335.953125 301.480469 334.6875 299.71875 333.5625 297.867188 C 330.96875 293.449219 328.550781 288.933594 325.890625 284.554688 C 325.515625 283.875 324.941406 283.320312 324.25 282.972656 C 321.734375 281.671875 318.886719 281.238281 316.308594 280.109375 C 315.617188 279.757812 315.28125 278.960938 315.09375 278.25 C 314.925781 277.789062 315.511719 277.6875 315.761719 277.449219 C 316.78125 276.4375 317.4375 275.136719 318.125 273.898438 C 318.417969 273.3125 319.359375 273.671875 319.574219 273.007812 C 319.761719 272.328125 319.683594 271.605469 319.828125 270.914062 C 319.949219 270.429688 320.21875 269.96875 320.183594 269.453125 C 320.117188 269.089844 320.011719 268.730469 319.957031 268.367188 C 320.632812 268.136719 321.378906 268.3125 322.054688 268.089844 C 322.53125 267.859375 322.238281 267.296875 322.105469 266.941406 C 321.753906 266.199219 322.09375 265.378906 322 264.601562 C 321.914062 264.21875 321.394531 264.207031 321.242188 263.875 C 320.617188 262.523438 320.164062 261.085938 319.375 259.8125 C 318.730469 258.800781 317.398438 258.734375 316.546875 257.976562 C 315.742188 257.28125 315.03125 256.394531 313.972656 256.078125 C 312.597656 255.671875 311.140625 255.5625 309.714844 255.65625 C 308.074219 255.78125 306.722656 256.867188 305.652344 258.03125 C 304.890625 258.890625 304.125 259.761719 303.558594 260.761719 C 303.152344 261.519531 303.691406 262.378906 303.410156 263.160156 C 303.035156 264.304688 302.386719 265.367188 302.226562 266.574219 C 302.246094 267.46875 303.078125 268.015625 303.617188 268.625 C 303.382812 268.820312 303.070312 268.972656 302.953125 269.273438 C 302.984375 270.128906 303.1875 270.96875 303.425781 271.789062 C 303.636719 272.578125 304.355469 273.082031 305.046875 273.445312 C 305.34375 273.609375 305.765625 273.640625 305.941406 273.976562 C 305.925781 274.269531 305.855469 274.554688 305.824219 274.851562 C 305.8125 275.226562 306.136719 275.453125 306.40625 275.660156 C 307.007812 276.085938 306.996094 276.910156 307.132812 277.566406 C 307.222656 278.21875 307.445312 279.023438 306.90625 279.546875 C 305.855469 280.617188 304.671875 281.566406 303.390625 282.339844 C 302.472656 282.925781 301.382812 282.363281 300.394531 282.574219 C 299.347656 282.804688 298.214844 283.128906 297.515625 284 C 296.96875 284.671875 297.035156 285.601562 296.679688 286.359375 C 296.132812 287.535156 295.429688 288.625 294.796875 289.75 C 294.117188 290.96875 293.25 292.078125 292.667969 293.347656 C 291.238281 296.464844 290.363281 299.820312 289.949219 303.21875 C 289.488281 307.121094 289.128906 311.042969 288.347656 314.894531 C 288.203125 315.882812 287.148438 316.199219 286.582031 316.890625 C 285.839844 317.671875 285.253906 318.621094 284.421875 319.316406 C 283.585938 319.351562 282.886719 318.761719 282.183594 318.382812 C 280.980469 317.527344 279.617188 316.742188 278.851562 315.433594 C 278.320312 314.5625 278.609375 313.53125 278.558594 312.578125 C 278.523438 311.707031 278.027344 310.964844 277.609375 310.238281 C 276.46875 308.347656 275.242188 306.507812 273.941406 304.722656 C 273.625 304.328125 273.351562 303.847656 272.863281 303.65625 C 271.800781 303.296875 270.65625 303.429688 269.5625 303.316406 C 269.160156 302.71875 268.378906 302.472656 268.097656 301.796875 C 268.023438 300.878906 268.09375 299.792969 268.792969 299.109375 C 269.382812 298.4375 270.003906 297.789062 270.589844 297.113281 C 270.800781 296.839844 271.207031 296.800781 271.378906 296.488281 C 271.667969 296.046875 271.9375 295.589844 272.148438 295.105469 C 272.410156 294.574219 272.179688 293.992188 272.125 293.445312 C 273.65625 294.082031 275.25 294.9375 276.035156 296.476562 C 276.214844 296.6875 276.292969 297.253906 276.675781 297.105469 C 277.136719 296.863281 276.851562 296.304688 276.777344 295.929688 C 276.546875 294.875 275.65625 294.207031 274.9375 293.484375 C 274.449219 293.015625 273.945312 292.570312 273.476562 292.082031 C 275.132812 293.101562 276.507812 294.605469 278.402344 295.207031 C 278.550781 295.132812 278.707031 295.0625 278.863281 294.992188 C 278.386719 294.910156 277.945312 294.742188 277.515625 294.542969 C 277.628906 294.195312 277.972656 294.46875 278.171875 294.574219 C 278.460938 294.71875 278.71875 295.003906 279.082031 294.933594 C 278.9375 295.058594 278.796875 295.1875 278.664062 295.316406 C 278.949219 295.246094 279.636719 295.6875 279.710938 295.191406 C 279.019531 294.660156 278.140625 294.398438 277.535156 293.75 C 275.6875 291.769531 274.519531 289.300781 273.160156 286.988281 C 272.121094 285.21875 270.742188 283.671875 269.261719 282.257812 C 268.183594 281.207031 266.703125 280.503906 265.175781 280.609375 C 263.984375 280.683594 262.773438 280.414062 261.59375 280.675781 C 260.976562 280.8125 260.617188 281.40625 260.484375 281.988281 C 260.171875 283.511719 258.902344 284.546875 258.226562 285.898438 C 257.527344 287.039062 257.355469 288.425781 257.566406 289.730469 C 257.652344 290.824219 258.101562 291.875 258.011719 292.984375 C 258.007812 293.992188 257.761719 295.023438 258.007812 296.019531 C 258.296875 296.535156 259.039062 296.363281 259.390625 296.808594 C 259.984375 297.484375 260.515625 298.230469 260.910156 299.042969 C 261.097656 299.46875 261.3125 300.035156 260.941406 300.429688 C 260.316406 301.113281 259.417969 301.472656 258.542969 301.71875 C 257.785156 301.972656 257.492188 300.84375 256.746094 300.90625 C 255.8125 300.941406 254.921875 301.269531 254.023438 301.503906 C 252.296875 302.183594 250.664062 303.132812 248.863281 303.625 C 248.066406 303.824219 247.121094 304.035156 246.402344 303.523438 C 245.425781 302.828125 244.863281 301.722656 244.386719 300.660156 C 244.082031 299.925781 243.792969 299.175781 243.667969 298.386719 C 243.609375 297.609375 244.15625 296.964844 244.300781 296.226562 C 244.382812 295.648438 243.945312 295.195312 243.65625 294.746094 C 243.207031 294.132812 243.421875 293.300781 243.074219 292.644531 C 242.039062 290.375 239.558594 289.292969 238.242188 287.242188 C 238.636719 286.378906 239.964844 286.527344 240.472656 285.785156 C 240.175781 285.28125 239.433594 285.554688 239.046875 285.160156 C 239.847656 284.222656 241.011719 283.371094 241.078125 282.035156 C 241.121094 280.640625 240.628906 279.3125 240.25 277.992188 C 239.683594 276.015625 238.992188 274.054688 237.914062 272.292969 C 237.253906 271.144531 236.296875 270.210938 235.359375 269.289062 C 234.015625 267.984375 232.660156 266.683594 231.546875 265.171875 C 230.691406 264.046875 230.113281 262.753906 229.496094 261.496094 C 226.117188 254.375 223.15625 247.066406 219.761719 239.953125 C 219.25 239.023438 218.894531 237.863281 217.863281 237.378906 C 216.757812 236.722656 215.394531 236.722656 214.289062 236.097656 C 213.773438 235.414062 213.902344 234.417969 214.152344 233.648438 C 214.765625 233.738281 215.320312 234.046875 215.777344 234.453125 C 216.09375 234.742188 216.472656 234.316406 216.675781 234.078125 C 217.234375 233.46875 216.835938 232.621094 216.992188 231.902344 C 217.613281 231.777344 217.632812 232.585938 218.109375 232.773438 C 218.558594 232.691406 218.625 232.15625 218.765625 231.800781 C 219.105469 230.78125 218.945312 229.703125 218.984375 228.65625 C 219.957031 228.617188 220.578125 229.390625 221.28125 229.910156 C 221.515625 229.511719 221.238281 229.070312 221.148438 228.671875 C 220.25 225.945312 219.242188 223.230469 217.746094 220.769531 C 215.726562 217.609375 213.085938 214.917969 210.679688 212.054688 C 208.851562 209.921875 207.199219 207.632812 205.207031 205.648438 C 204.15625 204.605469 202.578125 204.886719 201.246094 204.632812 C 199.640625 204.363281 197.972656 204.492188 196.4375 205.042969 C 195.179688 205.523438 194.140625 206.421875 193.207031 207.375 C 192.320312 208.289062 191.5 209.285156 190.863281 210.398438 C 190.125 211.703125 189.769531 213.183594 189.570312 214.65625 C 189.335938 216.390625 189.007812 218.148438 189.285156 219.898438 C 189.429688 220.890625 189.925781 221.78125 190.125 222.761719 C 190.625 224.949219 190.96875 227.171875 191.304688 229.386719 C 191.507812 230.613281 190.402344 231.496094 189.40625 231.933594 C 187.011719 232.871094 184.550781 233.625 182.171875 234.605469 C 181.601562 234.835938 181.035156 235.101562 180.574219 235.519531 C 179.820312 236.148438 179.308594 237.003906 178.613281 237.691406 C 178.128906 238.171875 177.433594 238.289062 176.855469 238.605469 C 176.3125 238.894531 175.988281 239.441406 175.695312 239.953125 C 175.070312 241.058594 174.554688 242.21875 174.066406 243.386719 C 172.726562 246.429688 172.628906 249.875 171.132812 252.859375 C 170.125 254.925781 168.257812 256.46875 167.464844 258.65625 C 166.683594 260.65625 166.703125 262.84375 166.207031 264.902344 C 165.652344 264.492188 165.085938 263.910156 165.117188 263.171875 C 165.113281 260.773438 165.339844 258.367188 165.070312 255.972656 C 164.796875 253.675781 164.285156 251.414062 163.785156 249.15625 C 161.660156 239.601562 159.339844 230.09375 157.027344 220.585938 C 156.554688 218.605469 156 216.648438 155.589844 214.65625 C 155.171875 212.832031 154.8125 210.929688 153.765625 209.34375 C 152.667969 207.570312 150.964844 206.242188 149.148438 205.269531 C 146.246094 204.011719 143.207031 203.109375 140.25 201.996094 C 138.976562 201.5 137.660156 201.0625 136.488281 200.347656 C 135.972656 200.046875 135.878906 199.390625 135.847656 198.855469 C 135.816406 197.664062 136.121094 196.496094 136.472656 195.371094 C 137.054688 194.097656 138.050781 193.054688 138.605469 191.769531 C 139.046875 190.730469 138.488281 189.554688 139 188.539062 C 139.179688 188.132812 139.621094 187.863281 139.660156 187.394531 C 139.835938 186.160156 139.871094 184.910156 140.097656 183.683594 C 140.269531 182.679688 141.480469 182.152344 141.390625 181.066406 C 141.175781 179.78125 140.445312 178.65625 140.015625 177.445312 C 139.613281 176.292969 140.367188 175.128906 140.09375 173.976562 C 139.78125 173.003906 138.664062 172.847656 137.917969 172.351562 C 136.582031 171.410156 135.421875 170.1875 133.90625 169.53125 C 133.117188 169.199219 132.328125 169.714844 131.53125 169.652344 C 130.449219 169.609375 129.359375 169.601562 128.292969 169.394531 C 127.582031 169.300781 127.304688 168.1875 126.511719 168.460938 C 125.425781 169.007812 124.6875 170.046875 123.65625 170.683594 C 122.855469 171.167969 121.984375 171.679688 121.59375 172.582031 C 121.136719 173.441406 121.046875 174.539062 120.277344 175.203125 C 119.589844 175.648438 118.527344 175.8125 118.363281 176.777344 C 118.128906 178.148438 118.667969 179.523438 119.308594 180.71875 C 119.671875 181.378906 119.609375 182.144531 119.523438 182.867188 C 119.414062 183.707031 119.9375 184.421875 120.183594 185.183594 C 120.195312 186.5625 120.070312 187.949219 120.246094 189.320312 C 120.386719 190.347656 121.035156 191.203125 121.3125 192.1875 C 121.851562 193.867188 122.605469 195.644531 122.082031 197.429688 C 121.851562 198.371094 120.980469 198.925781 120.179688 199.347656 C 118.582031 200.167969 116.941406 200.949219 115.191406 201.367188 C 113.214844 201.871094 111.210938 202.261719 109.25 202.804688 C 107.042969 203.40625 105.097656 204.808594 103.730469 206.625 C 102.632812 208.066406 101.625 209.570312 100.660156 211.101562 C 100.027344 211.929688 100.613281 212.992188 100.347656 213.921875 C 99.601562 217.726562 98.8125 221.527344 97.863281 225.285156 C 97.042969 228.539062 95.441406 231.523438 94.585938 234.765625 C 94.144531 236.390625 93.585938 238 92.707031 239.449219 C 91.75 241.039062 90.742188 242.617188 90.125 244.378906 C 89.097656 247.234375 88.332031 250.175781 87.542969 253.101562 C 85.246094 261.570312 83.660156 270.207031 81.707031 278.753906 C 81.550781 279.5 81.136719 280.15625 80.65625 280.734375 C 80.113281 281.386719 79.628906 282.101562 78.96875 282.648438 C 78.789062 282.773438 78.515625 283.015625 78.328125 282.769531 C 77.910156 282.300781 77.832031 281.628906 77.429688 281.148438 C 76.726562 280.332031 75.667969 279.695312 74.554688 279.898438 C 73.699219 279.921875 73.0625 280.601562 72.238281 280.734375 C 71.488281 280.445312 71.011719 279.414062 71.230469 278.652344 L 71.34375 278.574219 C 72.785156 278.683594 74.195312 279.132812 75.648438 279.078125 C 76.238281 279.023438 76.464844 278.367188 76.601562 277.882812 C 76.730469 277.351562 76.9375 276.691406 76.453125 276.28125 C 76.746094 276 77.128906 275.765625 77.28125 275.371094 C 77.386719 274.886719 77.113281 274.417969 77.140625 273.929688 C 77.300781 273.273438 78.179688 273.046875 78.214844 272.332031 C 78.210938 271.640625 77.34375 271.382812 77.273438 270.722656 C 77.257812 270.191406 77.640625 269.769531 77.808594 269.289062 C 78.207031 268.175781 78.703125 267.066406 78.734375 265.863281 C 78.769531 264.5625 78.628906 263.210938 78.050781 262.027344 C 77.566406 261.054688 76.65625 260.414062 75.8125 259.777344 C 75.148438 259.304688 74.789062 258.480469 74.023438 258.132812 C 72.804688 257.488281 71.402344 257.546875 70.070312 257.554688 C 69.1875 257.5625 68.664062 256.550781 67.765625 256.675781 C 66.425781 256.988281 65.324219 257.917969 63.980469 258.230469 C 63.175781 258.464844 62.214844 258.671875 61.476562 258.140625 C 60.824219 257.636719 60.113281 257.226562 59.464844 256.722656 C 59.066406 256.425781 58.578125 256.171875 58.066406 256.261719 C 57.234375 256.375 56.632812 257.035156 56.164062 257.679688 C 55.535156 258.519531 55.140625 259.582031 55.277344 260.640625 C 55.414062 261.648438 56.261719 262.363281 56.445312 263.355469 C 56.765625 264.464844 56.527344 265.625 56.625 266.757812 C 56.722656 268.089844 56.691406 269.464844 57.136719 270.738281 C 57.957031 272.652344 59.59375 274.011719 60.90625 275.574219 C 61.515625 276.261719 61.851562 277.167969 61.941406 278.074219 C 61.96875 278.441406 61.566406 278.566406 61.285156 278.640625 C 60.453125 278.941406 59.574219 278.4375 58.742188 278.742188 C 57.671875 279.125 56.90625 280.015625 55.996094 280.65625 C 55.160156 281.214844 54.402344 281.964844 54.125 282.960938 C 52.691406 287.40625 52.574219 292.128906 52.625 296.753906 C 52.675781 298.234375 52.714844 299.742188 53.136719 301.175781 C 53.671875 302.757812 55.113281 303.730469 56.304688 304.796875 C 56.828125 305.277344 57.445312 305.878906 57.324219 306.664062 C 57.121094 308.101562 55.980469 309.125 55.375 310.382812 C 55.390625 313.082031 55.207031 315.785156 55.195312 318.492188 C 55.222656 320.65625 55.039062 322.882812 55.714844 324.972656 C 56.152344 326.449219 56.898438 327.808594 57.585938 329.179688 C 58.289062 330.671875 59.667969 331.816406 59.960938 333.5 C 60.582031 336.789062 60.945312 340.128906 61.1875 343.464844 C 61.328125 344.398438 60.640625 345.121094 60.367188 345.949219 C 59.8125 347.453125 59.191406 349.003906 59.292969 350.636719 C 59.414062 352.460938 59.851562 354.246094 60.09375 356.058594 C 60.265625 356.9375 59.402344 357.699219 59.742188 358.585938 C 60.167969 360.050781 60.796875 361.445312 61.261719 362.894531 C 61.605469 363.902344 61.417969 364.980469 61.328125 366.015625 C 61.320312 366.679688 60.605469 366.976562 60.378906 367.550781 C 60.378906 367.554688 60.378906 367.554688 60.375 367.558594 C 60.152344 367.972656 60.460938 368.480469 60.929688 368.480469 L 75.695312 368.480469 C 76.308594 368.480469 76.566406 367.703125 76.082031 367.328125 C 76.078125 367.324219 76.070312 367.320312 76.066406 367.316406 C 75.757812 367.035156 75.28125 366.761719 75.34375 366.28125 C 75.4375 365.515625 75.664062 364.484375 74.917969 363.964844 C 74.222656 363.339844 73.308594 362.765625 73.097656 361.796875 C 73.242188 360.921875 73.820312 360.203125 74.25 359.449219 C 75.320312 357.71875 76.578125 356.109375 77.589844 354.339844 C 77.949219 353.558594 76.753906 353.054688 77.09375 352.277344 C 77.40625 351.566406 77.949219 350.992188 78.273438 350.292969 C 79.101562 348.511719 79.863281 346.703125 80.652344 344.90625 C 80.90625 344.351562 81.085938 343.746094 81.527344 343.304688 C 81.554688 340.84375 81.492188 338.386719 81.402344 335.929688 C 81.351562 335.121094 81.375 334.246094 80.917969 333.539062 C 80.589844 332.933594 79.953125 332.359375 80.160156 331.609375 C 80.492188 330.984375 81.195312 330.722656 81.734375 330.320312 C 82.140625 330.039062 82.589844 329.617188 82.484375 329.070312 C 82.289062 328.1875 81.488281 327.652344 81.035156 326.917969 C 80.855469 326.578125 81.070312 326.191406 81.273438 325.914062 C 82.136719 324.808594 82.949219 323.621094 84.089844 322.773438 C 84.792969 322.238281 85.730469 322.421875 86.527344 322.152344 C 87.003906 322 87.246094 321.457031 87.117188 320.988281 C 86.832031 319.71875 86.113281 318.570312 86.007812 317.257812 C 85.574219 313.058594 85.457031 308.792969 84.371094 304.691406 C 83.53125 301.910156 82.4375 299.21875 81.425781 296.503906 C 81.957031 296.554688 81.769531 295.988281 81.761719 295.660156 C 81.613281 294.175781 81.519531 292.65625 81.855469 291.195312 C 82.070312 290.300781 82.632812 289.546875 83.226562 288.871094 C 84.519531 287.410156 86.113281 286.261719 87.5 284.898438 C 88.246094 284.191406 89.125 283.632812 89.804688 282.859375 C 90.230469 282.40625 90.226562 281.746094 90.140625 281.167969 C 90.609375 281.28125 91.144531 281.296875 91.578125 281.050781 C 91.976562 280.738281 91.894531 280.152344 91.984375 279.707031 C 92.148438 276.894531 92.199219 273.945312 91.019531 271.324219 C 90.5 270.183594 89.234375 269.375 89.257812 268.019531 C 89.351562 266.535156 90.21875 265.261719 90.839844 263.953125 C 94.707031 255.894531 98.597656 247.84375 102.675781 239.894531 C 102.964844 239.074219 104 239.105469 104.488281 238.476562 C 104.902344 238 105.230469 237.453125 105.707031 237.035156 C 105.964844 237.191406 106.027344 237.488281 106.117188 237.757812 C 106.328125 238.484375 106.460938 239.234375 106.535156 239.988281 C 106.636719 240.351562 106.234375 240.507812 106.027344 240.71875 C 105.328125 241.347656 104.496094 242.042969 104.460938 243.066406 C 104.484375 243.878906 104.589844 244.703125 104.847656 245.476562 C 105.222656 246.757812 105.015625 248.121094 104.816406 249.414062 C 104.773438 249.863281 104.425781 250.183594 104.3125 250.605469 C 104.300781 251.515625 104.546875 252.425781 104.363281 253.332031 C 104.15625 254.199219 103.242188 254.582031 102.839844 255.332031 C 102.195312 256.472656 101.730469 257.726562 101.53125 259.023438 C 101.398438 260.160156 101.515625 261.304688 101.546875 262.441406 C 101.667969 264.375 101.410156 266.324219 100.886719 268.1875 C 100.664062 269.101562 99.734375 269.726562 99.746094 270.714844 C 99.792969 271.890625 101.257812 272.378906 101.320312 273.558594 C 101.40625 275.246094 101.335938 276.9375 101.292969 278.625 C 101.175781 281.324219 101.097656 284.027344 100.785156 286.710938 C 100.644531 287.992188 99.605469 288.878906 99.097656 290.003906 C 98.871094 290.445312 99.015625 291.035156 99.472656 291.265625 C 100.484375 291.796875 101.667969 291.683594 102.75 291.953125 C 103.175781 292.269531 102.929688 292.898438 103.082031 293.347656 C 104.042969 297.554688 104.65625 301.828125 105.273438 306.09375 C 105.59375 308.90625 106.125 311.71875 105.949219 314.558594 C 105.835938 316.492188 105.09375 318.34375 105.125 320.289062 C 105.117188 322.703125 105.84375 325.03125 106.566406 327.304688 C 107.65625 331.117188 109.359375 334.710938 110.660156 338.449219 C 111.566406 340.933594 112.171875 343.511719 112.785156 346.078125 C 113.1875 347.933594 113.625 349.804688 113.625 351.71875 C 113.59375 353.613281 112.457031 355.242188 111.222656 356.589844 C 110.160156 357.90625 108.648438 358.714844 107.269531 359.652344 C 106.539062 360.113281 106.519531 361.105469 105.890625 361.660156 C 104.902344 362.582031 103.789062 363.410156 103.042969 364.558594 C 102.761719 365 102.433594 365.714844 102.160156 366.363281 C 101.871094 367.050781 102.378906 367.808594 103.125 367.808594 L 113.027344 367.808594 C 113.40625 367.71875 113.792969 367.625 114.070312 367.332031 C 114.546875 366.785156 114.859375 366.085938 115.488281 365.6875 C 117.140625 364.570312 119.152344 364.230469 120.953125 363.433594 C 121.707031 363.113281 122.753906 362.765625 122.757812 361.777344 C 122.742188 360.660156 122.523438 359.554688 122.304688 358.464844 C 121.964844 356.984375 121.65625 355.492188 121.203125 354.042969 C 120.472656 353.242188 120.195312 352.164062 119.828125 351.167969 C 119 348.871094 119.25 346.390625 119.285156 344 C 119.378906 339.71875 119.875 335.460938 120.503906 331.226562 C 120.667969 329.679688 120.851562 328.0625 120.347656 326.558594 C 119.246094 322.777344 118.132812 318.972656 117.613281 315.058594 C 117.234375 312.320312 117.371094 309.542969 117.628906 306.800781 C 117.902344 303.808594 118.402344 300.839844 118.871094 297.875 C 119.15625 296.085938 119.128906 294.246094 119.554688 292.480469 C 119.960938 292.109375 120.675781 292.738281 121.027344 292.210938 C 121.230469 291.789062 121.023438 291.289062 121.007812 290.839844 C 121.527344 291.886719 121.886719 293.054688 122.695312 293.933594 C 123.210938 294.472656 124.023438 294.410156 124.710938 294.363281 C 125.203125 294.316406 125.828125 294.351562 126.074219 294.863281 C 126.539062 295.839844 126.484375 296.960938 126.589844 298.015625 C 126.851562 300.761719 126.675781 303.527344 126.691406 306.285156 C 126.707031 308.734375 126.628906 311.203125 127.019531 313.632812 C 127.40625 316.042969 129.011719 318.050781 129.363281 320.472656 C 129.644531 322.167969 129.1875 323.859375 128.800781 325.5 C 128.074219 328.4375 127.082031 331.3125 126.648438 334.3125 C 126.308594 336.453125 126.855469 338.613281 127.652344 340.589844 C 128.347656 342.3125 128.902344 344.117188 128.976562 345.988281 C 129.167969 350.605469 128.71875 355.21875 128.4375 359.824219 C 128.273438 361.980469 127.976562 364.128906 127.910156 366.292969 C 126.828125 368.425781 127.679688 369.34375 129.0625 369.429688 L 139.898438 369.429688 C 140.527344 369.429688 140.847656 368.667969 140.40625 368.222656 C 140.128906 367.941406 139.816406 367.683594 139.535156 367.417969 C 138.902344 366.875 138.03125 366.496094 137.726562 365.664062 C 137.539062 365.078125 137.398438 364.382812 136.816406 364.054688 C 136.257812 363.699219 135.347656 363.65625 135.15625 362.90625 C 135.046875 361.957031 135.277344 361.019531 135.425781 360.089844 C 135.972656 356.679688 137.046875 353.386719 137.890625 350.046875 C 139.011719 345.890625 140.441406 341.800781 141.078125 337.53125 C 141.78125 333.148438 142.0625 328.644531 141.234375 324.253906 C 140.761719 321.875 140.222656 319.488281 140.167969 317.054688 C 140.042969 314.710938 140.28125 312.371094 140.535156 310.042969 C 140.988281 306.015625 141.460938 301.984375 142.210938 298 C 142.449219 296.855469 142.65625 295.6875 143.117188 294.605469 C 143.289062 294.121094 143.785156 293.875 144.253906 293.773438 C 145.503906 293.515625 146.785156 293.847656 148.039062 293.671875 C 148.691406 293.578125 149.015625 292.875 148.988281 292.277344 C 148.992188 291.367188 148.71875 290.480469 148.785156 289.570312 C 148.824219 287.292969 148.875 285.019531 148.859375 282.742188 C 148.84375 281.414062 148.851562 280.066406 148.53125 278.769531 C 148.355469 277.824219 147.980469 276.90625 147.933594 275.945312 C 148.195312 275.53125 148.832031 275.570312 149.050781 275.105469 C 149.222656 274.691406 149.21875 274.226562 149.261719 273.789062 C 149.410156 269.230469 149.554688 264.671875 149.539062 260.109375 C 149.519531 256.796875 149.542969 253.457031 148.882812 250.195312 C 148.363281 247.386719 147.414062 244.65625 147.167969 241.796875 C 147.003906 238.882812 147.347656 235.964844 147.835938 233.09375 C 147.957031 232.636719 147.953125 232.128906 148.199219 231.714844 C 148.621094 232.375 149.011719 233.089844 149.125 233.878906 C 149.28125 234.832031 149.402344 235.800781 149.769531 236.703125 C 150.320312 238.078125 151.0625 239.367188 151.679688 240.714844 C 152.613281 242.484375 153.160156 244.417969 153.875 246.28125 C 155.925781 251.890625 158.007812 257.488281 159.882812 263.15625 C 160.734375 265.574219 161.039062 268.152344 161.125 270.703125 C 161.078125 271.214844 161.195312 271.886719 160.738281 272.25 C 160.195312 272.574219 159.476562 272.558594 159.03125 273.046875 C 158.378906 273.699219 158.632812 274.785156 157.992188 275.441406 C 157.4375 276.03125 156.53125 276.089844 155.976562 276.667969 C 155.851562 277.210938 156.484375 277.488281 156.847656 277.753906 C 157.207031 278.046875 157.695312 278.136719 158.046875 278.429688 C 157.644531 279.460938 157.121094 280.441406 156.761719 281.488281 C 156.46875 282.230469 156.65625 283.054688 156.933594 283.769531 C 157.066406 284.066406 157.222656 284.421875 157.570312 284.519531 C 158.085938 284.378906 158.257812 283.78125 158.660156 283.476562 C 158.910156 283.429688 158.996094 283.753906 159.148438 283.894531 C 159.699219 284.667969 160.070312 285.5625 160.6875 286.285156 C 161.035156 286.539062 161.382812 286.109375 161.574219 285.855469 C 162.054688 285.285156 161.828125 284.511719 161.878906 283.839844 C 161.902344 282.972656 161.929688 281.957031 162.617188 281.332031 C 163.367188 280.691406 164.417969 280.753906 165.308594 280.457031 C 166.804688 279.996094 167.867188 278.785156 169.140625 277.945312 C 170.75 276.894531 172.585938 276.273438 174.300781 275.421875 C 175.390625 274.886719 176.613281 274.574219 177.589844 273.828125 C 178.363281 273.199219 178.121094 272.082031 178.632812 271.304688 C 178.988281 270.738281 179.382812 270.191406 179.828125 269.691406 C 179.957031 271.5625 179.566406 273.410156 179.222656 275.238281 C 178.941406 276.585938 178.660156 277.949219 178.164062 279.238281 C 177.511719 280.894531 176.605469 282.453125 176.175781 284.191406 C 175.039062 288.792969 175.5625 293.683594 177.082031 298.132812 C 178.179688 301.320312 179.25 304.519531 180.5 307.648438 C 181.878906 311.261719 183.355469 314.835938 184.625 318.488281 C 184.832031 318.949219 184.808594 319.488281 184.515625 319.910156 C 183.84375 320.898438 183.632812 322.191406 183.871094 323.355469 C 184.066406 324.230469 185.039062 324.480469 185.523438 325.125 C 185.078125 325.320312 184.523438 325.332031 184.1875 325.71875 C 183.992188 326.089844 184.039062 326.519531 184.070312 326.925781 C 184.371094 328.976562 183.722656 331 183.621094 333.046875 C 183.441406 334.785156 183.53125 336.542969 183.8125 338.265625 C 184.453125 342.832031 185.367188 347.355469 185.992188 351.921875 C 186.207031 352.894531 185.433594 353.644531 185.15625 354.503906 C 184.941406 355.425781 184.9375 356.449219 185.378906 357.308594 C 185.675781 357.851562 186.28125 358.105469 186.65625 358.578125 C 186.84375 358.871094 186.667969 359.1875 186.53125 359.460938 C 185.746094 360.859375 184.695312 362.09375 183.882812 363.480469 C 183.519531 364.0625 183.808594 364.738281 183.925781 365.351562 C 184.042969 365.824219 183.785156 366.300781 183.902344 366.773438 C 183.851562 366.746094 183.8125 367.164062 183.78125 367.648438 C 183.742188 368.394531 184.332031 369.023438 185.078125 369.023438 C 186.492188 369.023438 188.878906 369.023438 191.539062 369.023438 C 192.234375 369.023438 192.746094 368.949219 192.796875 367.765625 C 192.820312 367.289062 192.589844 366.859375 192.644531 366.457031 C 193.058594 364.820312 192.964844 363.121094 193.019531 361.445312 C 193.058594 360.726562 192.714844 359.980469 192.976562 359.285156 C 193.4375 358.734375 194.761719 358.441406 194.851562 359.445312 C 195.160156 361.421875 195.542969 363.390625 195.753906 365.382812 C 195.890625 366.203125 195.511719 366.972656 195.140625 367.671875 C 195.136719 367.671875 195.132812 367.6875 195.128906 367.71875 C 195.03125 368.40625 195.578125 369.023438 196.277344 369.023438 C 201.21875 369.023438 205.183594 369.027344 205.183594 369.027344 L 205.1875 369.027344 C 205.632812 369.027344 205.941406 368.566406 205.757812 368.160156 C 205.582031 367.773438 205.308594 367.429688 204.953125 367.183594 C 204.441406 366.824219 204.023438 366.292969 203.75 365.753906 C 204.019531 365.1875 204.15625 364.574219 204.269531 363.964844 C 204.4375 363.054688 204.082031 362.164062 204.109375 361.261719 C 204.101562 360.285156 204.609375 359.371094 204.53125 358.390625 C 204.488281 357.605469 203.59375 357.191406 203.585938 356.40625 C 203.753906 355.460938 204.359375 354.675781 204.707031 353.792969 C 205.472656 351.820312 206.050781 349.738281 206.050781 347.609375 C 206.046875 345.671875 206.894531 343.898438 207.601562 342.140625 C 207.878906 341.410156 208.3125 340.664062 208.160156 339.855469 C 208.039062 338.707031 207.257812 337.785156 206.992188 336.6875 C 207.351562 336.476562 207.800781 336.257812 207.835938 335.78125 C 208.09375 334.171875 208.40625 332.488281 207.957031 330.882812 C 207.960938 329.855469 208.347656 328.871094 208.453125 327.855469 C 208.789062 324.550781 208.789062 321.207031 209.367188 317.933594 C 209.53125 317.105469 210.429688 316.832031 211.074219 316.472656 C 212.125 315.894531 212.605469 314.738281 213.289062 313.816406 C 214.285156 312.339844 216.109375 311.78125 217.257812 310.453125 C 218.191406 309.5 218.414062 308.140625 218.765625 306.910156 C 219.710938 303.085938 220.417969 299.210938 221.105469 295.335938 C 221.550781 292.652344 222.039062 289.964844 222.101562 287.242188 C 222.246094 284.238281 221.839844 281.25 221.617188 278.261719 C 221.546875 277.835938 221.75 277.4375 221.929688 277.070312 C 222.53125 277.574219 222.828125 278.351562 223.292969 278.976562 C 224.664062 280.914062 225.855469 282.988281 227.386719 284.808594 C 227.984375 285.515625 229.019531 285.289062 229.773438 285.636719 C 230.324219 286.554688 229.515625 287.554688 229.617188 288.519531 C 229.769531 289.152344 230.285156 289.949219 231.042969 289.789062 C 232.152344 289.511719 233.199219 289.019531 234.28125 288.644531 C 235.144531 289.316406 234.976562 290.621094 235.597656 291.480469 C 236.125 292.496094 237.59375 292.304688 238.101562 293.320312 C 238.507812 294.070312 238.992188 294.820312 239.097656 295.683594 C 238.914062 296.460938 237.898438 296.46875 237.402344 296.957031 C 237.445312 297.488281 238.136719 297.589844 238.570312 297.566406 C 238.210938 297.738281 237.792969 297.871094 237.566406 298.230469 C 237.902344 298.738281 238.625 298.648438 239.152344 298.78125 C 239.625 298.910156 240.070312 298.726562 240.507812 298.558594 C 241.441406 301.308594 242.375 304.066406 243.566406 306.71875 C 243.910156 307.429688 244.488281 308.046875 245.234375 308.34375 C 245.988281 308.652344 246.804688 308.757812 247.585938 308.984375 C 249.355469 309.539062 251.015625 310.382812 252.757812 311.007812 C 253.820312 311.457031 254.222656 312.652344 254.523438 313.671875 C 254.988281 315.351562 255.035156 317.109375 255.179688 318.835938 C 255.339844 321.222656 255.476562 323.648438 255.003906 326.007812 C 254.539062 328.277344 254.261719 330.578125 253.890625 332.867188 C 253.582031 335.085938 253.167969 337.292969 253.011719 339.53125 C 253.144531 340.132812 253.933594 339.675781 254.21875 340.042969 C 254.019531 341.980469 253.496094 343.863281 253.207031 345.785156 C 253.085938 346.867188 252.992188 347.964844 252.648438 349.007812 C 252.460938 349.714844 252.132812 350.484375 252.449219 351.203125 C 252.582031 351.625 252.933594 352.09375 252.644531 352.535156 C 252.207031 353.199219 251.46875 353.652344 251.199219 354.433594 C 250.859375 355.445312 250.714844 356.636719 251.207031 357.628906 C 251.53125 358.289062 252.488281 358.507812 252.578125 359.277344 C 252.144531 361.574219 250.929688 363.605469 249.867188 365.65625 C 249.363281 366.507812 248.929688 367.402344 248.71875 368.375 C 248.707031 368.375 248.691406 368.394531 248.675781 368.425781 C 248.496094 368.800781 248.792969 369.230469 249.207031 369.230469 L 256.390625 369.230469 C 256.652344 369.230469 256.824219 368.960938 256.714844 368.71875 C 256.628906 368.523438 256.554688 368.320312 256.464844 368.132812 C 256.121094 367.164062 255.574219 366.148438 255.878906 365.097656 C 256.339844 363.652344 256.953125 362.253906 257.628906 360.902344 C 257.863281 360.328125 258.660156 360.261719 258.832031 359.644531 C 258.957031 358.984375 258.691406 358.328125 258.746094 357.667969 C 258.933594 357.234375 259.546875 357.304688 259.789062 356.914062 C 260.085938 356.480469 259.785156 355.96875 259.832031 355.5 C 259.964844 354.558594 260.113281 353.558594 260.726562 352.792969 C 261.003906 352.332031 261.625 352.132812 261.722656 351.5625 C 261.675781 350.925781 261.105469 350.425781 261.191406 349.761719 C 261.273438 348.792969 261.46875 347.832031 261.75 346.898438 C 261.808594 346.386719 262.839844 346.246094 262.820312 346.863281 C 262.933594 348.195312 262.992188 349.574219 262.597656 350.867188 C 262.472656 351.441406 262.234375 352.039062 262.378906 352.632812 C 262.542969 353.3125 263.292969 353.621094 263.519531 354.269531 C 263.863281 355.3125 263.867188 356.507812 263.296875 357.472656 C 262.90625 358.03125 263.554688 358.355469 263.847656 358.722656 C 263.632812 359.425781 263.21875 360.109375 263.3125 360.871094 C 263.519531 361.894531 264.226562 362.738281 264.441406 363.761719 C 264.488281 364.625 263.300781 364.917969 263.296875 365.75 C 263.53125 366.332031 264.207031 366.472656 264.679688 366.804688 C 264.640625 366.777344 264.445312 367.359375 264.433594 367.410156 C 264.382812 367.632812 264.359375 367.859375 264.324219 368.085938 C 264.292969 368.304688 264.257812 368.527344 264.175781 368.734375 C 264.132812 368.839844 264.085938 368.9375 264.023438 369.027344 C 263.976562 369.089844 263.914062 369.140625 263.882812 369.210938 C 263.84375 369.300781 263.855469 369.390625 263.855469 369.488281 L 263.855469 369.496094 C 263.855469 369.859375 264.152344 370.152344 264.515625 370.152344 C 264.863281 370.152344 265.273438 370.152344 265.550781 370.152344 L 276.226562 370.152344 C 276.636719 370.152344 276.992188 369.867188 277.078125 369.464844 C 277.148438 369.140625 277.167969 368.828125 276.855469 368.601562 C 275.71875 368.074219 274.402344 368.105469 273.269531 367.570312 C 272.5 367.144531 271.851562 366.535156 271.246094 365.90625 C 271.453125 365.242188 270.542969 365.078125 270.519531 364.5 C 270.777344 364.148438 271.347656 363.914062 271.242188 363.390625 C 271.121094 362.792969 270.792969 362.242188 270.804688 361.621094 C 270.84375 359.820312 271.121094 358.023438 270.992188 356.222656 C 270.960938 355.566406 270.898438 354.914062 270.902344 354.261719 C 270.851562 353.746094 271.410156 353.464844 271.460938 352.980469 C 271.386719 352.617188 271.046875 352.414062 270.839844 352.140625 C 270.945312 352.078125 271.164062 351.953125 271.273438 351.890625 C 271.460938 351.445312 270.945312 351.121094 270.804688 350.734375 C 271.085938 350.695312 271.734375 350.792969 271.636719 350.332031 C 271.285156 349.695312 270.550781 349.121094 270.753906 348.316406 C 271.0625 347.042969 271.6875 345.867188 271.960938 344.582031 C 272.136719 343.671875 271.953125 342.75 272.015625 341.835938 C 272.027344 341.523438 272.1875 341.101562 272.558594 341.074219 C 273.574219 341.023438 274.433594 341.722656 275.421875 341.835938 C 275.953125 341.652344 276.117188 341.058594 276.296875 340.589844 C 276.960938 338.570312 277.148438 336.421875 277.054688 334.304688 C 276.972656 330.535156 276.625 326.75 275.710938 323.085938 C 275.777344 323.054688 275.761719 323.0625 275.828125 323.035156 C 276.289062 323.742188 276.6875 324.492188 277.160156 325.195312 C 277.28125 325.375 277.492188 325.707031 277.75 325.484375 C 278.710938 324.820312 279.617188 323.953125 280.820312 323.773438 C 281.691406 323.660156 282.582031 323.636719 283.453125 323.757812 C 283.628906 324.011719 283.753906 324.347656 284.050781 324.488281 C 284.359375 324.59375 284.472656 324.167969 284.636719 323.996094 C 284.984375 324.234375 285.179688 324.71875 285.648438 324.761719 C 285.949219 324.757812 286.253906 324.683594 286.566406 324.660156 C 286.972656 324.78125 286.902344 325.371094 287.285156 325.53125 C 287.753906 325.625 287.902344 325.007812 288.316406 324.914062 C 288.726562 325.636719 289.003906 326.695312 290.046875 326.65625 C 289.824219 327.097656 289.628906 327.554688 289.558594 328.046875 C 289.546875 328.394531 289.917969 328.433594 290.160156 328.292969 C 291.207031 327.878906 292.320312 327.113281 292.453125 325.898438 C 292.59375 324.722656 292.71875 323.203125 291.59375 322.445312 C 290.824219 321.953125 290.535156 320.863281 290.964844 320.054688 C 291.726562 318.503906 292.535156 316.964844 293.511719 315.535156 C 293.875 314.9375 294.792969 315.800781 295.121094 315.101562 C 295.269531 314.300781 294.8125 313.414062 295.273438 312.648438 C 296.027344 311.285156 296.808594 309.9375 297.433594 308.507812 C 297.78125 307.800781 298.09375 307.070312 298.585938 306.445312 C 299.441406 306.679688 299.914062 307.589844 300.003906 308.417969 C 300.277344 310.078125 299.679688 311.691406 299.292969 313.28125 C 298.824219 315.335938 297.902344 317.269531 297.601562 319.367188 C 297.335938 321.28125 297.226562 323.214844 297.175781 325.148438 C 297.175781 326.417969 297.113281 327.714844 297.40625 328.960938 C 297.796875 330.507812 299.457031 331.398438 299.621094 333.035156 C 299.769531 335.203125 299.308594 337.351562 299.289062 339.515625 C 299.195312 341.417969 299.628906 343.292969 300.105469 345.125 C 300.378906 346.085938 300.636719 347.054688 301.066406 347.964844 C 301.335938 348.609375 302.269531 348.558594 302.511719 349.210938 C 302.855469 350.714844 303.019531 352.253906 303.226562 353.78125 C 303.464844 356.023438 303.742188 358.277344 303.636719 360.535156 C 303.46875 362.074219 302.734375 363.480469 302.011719 364.828125 C 301.53125 365.753906 300.835938 366.566406 300.507812 367.5625 C 300.390625 367.925781 300.609375 368.21875 300.933594 368.34375 C 301.34375 368.503906 301.800781 368.4375 302.242188 368.4375 L 310.453125 368.4375 C 311.09375 368.4375 311.609375 367.910156 311.597656 367.269531 C 311.585938 366.535156 311.566406 365.722656 311.554688 365.722656 C 311.367188 364.429688 311.738281 363.082031 311.480469 361.785156 C 311.3125 361.105469 310.542969 360.957031 310.132812 360.484375 C 309.804688 359.953125 310.042969 359.316406 310.015625 358.738281 C 309.917969 358.378906 309.511719 358.335938 309.222656 358.214844 C 309.289062 356.761719 309.628906 355.335938 309.773438 353.886719 C 310.050781 352.085938 310.191406 350.253906 310.609375 348.476562 C 310.683594 347.902344 311.316406 348.125 311.691406 348.234375 C 312.628906 348.558594 313.648438 348.503906 314.582031 348.84375 C 314.785156 349.851562 314.714844 350.886719 314.765625 351.910156 C 314.863281 354.25 315.152344 356.582031 315.109375 358.925781 C 315.003906 360.097656 314.71875 361.261719 314.265625 362.34375 C 314.0625 362.785156 313.242188 363.113281 313.644531 363.667969 C 314.070312 364.230469 313.714844 364.96875 313.679688 365.589844 C 313.660156 365.59375 313.632812 366.644531 313.617188 367.574219 C 313.613281 368.046875 313.996094 368.4375 314.46875 368.4375 L 324.910156 368.4375 C 325.371094 368.4375 325.832031 368.445312 326.296875 368.445312 C 326.566406 368.445312 327.355469 368.050781 327.015625 366.988281 C 326.660156 365.871094 325.21875 365.667969 324.257812 365.101562 C 323.371094 364.582031 322.296875 364.164062 321.835938 363.175781 C 321.074219 361.753906 321.296875 360.105469 321.34375 358.5625 C 321.480469 355.574219 321.566406 352.578125 321.898438 349.601562 C 321.910156 348.925781 322.765625 349.097656 323.179688 348.800781 C 323.519531 348.558594 323.339844 348.117188 323.285156 347.789062 C 322.71875 345.535156 321.996094 343.285156 321.972656 340.941406 C 322.027344 338.988281 322.484375 337.074219 323.03125 335.207031 C 323.300781 334.363281 323.554688 333.503906 323.957031 332.710938 C 324.324219 332.050781 325.339844 332.289062 325.703125 331.617188 C 325.953125 330.769531 324.933594 330.128906 325.191406 329.269531 C 325.691406 326.957031 326.53125 324.671875 326.414062 322.273438 C 326.234375 317.949219 325.734375 313.644531 325.429688 309.324219 C 325.34375 308.96875 325.683594 308.765625 325.910156 308.566406 C 326.855469 310.136719 327.515625 311.863281 328.40625 313.464844 C 328.855469 314.246094 329.710938 314.847656 329.757812 315.820312 C 329.792969 317.03125 329.460938 318.210938 329.3125 319.402344 C 329.277344 319.742188 329.476562 320.050781 329.570312 320.371094 C 330.25 322.1875 329.667969 324.164062 330.054688 326.023438 C 330.488281 326.480469 331.269531 326.316406 331.726562 325.960938 C 332.710938 325.164062 333.566406 324.105469 333.835938 322.84375 C 334.066406 321.824219 333.972656 320.761719 333.804688 319.746094 C 333.527344 318.429688 332.722656 317.289062 332.488281 315.960938 C 332.164062 314.246094 332.269531 312.488281 332.144531 310.753906 C 332.128906 310.011719 331.488281 309.496094 331.359375 308.796875 C 331.414062 307.9375 332.191406 307.402344 332.78125 306.878906 C 333.988281 306.015625 335.308594 305.324219 336.574219 304.558594 C 336.875 304.359375 337.234375 304.222656 337.460938 303.933594 C 337.46875 303.675781 337.300781 303.472656 337.183594 303.269531 Z M 276.421875 296.296875 C 276.683594 296.152344 276.84375 296.621094 276.671875 296.792969 C 276.402344 296.925781 276.253906 296.449219 276.421875 296.296875 Z M 220.804688 228.914062 C 221.203125 228.839844 220.859375 229.601562 220.761719 229.074219 Z M 72.140625 344.363281 C 71.660156 345.222656 71.0625 346.066406 70.242188 346.636719 C 70.128906 345.238281 70.402344 343.847656 70.558594 342.460938 C 71.222656 342.214844 71.644531 342.929688 72.015625 343.355469 C 72.246094 343.636719 72.359375 344.035156 72.140625 344.363281 Z M 290.253906 326.148438 C 290.144531 325.855469 289.957031 325.582031 289.9375 325.269531 C 290.183594 325.40625 290.460938 325.558594 290.558594 325.847656 C 290.453125 325.941406 290.347656 326.042969 290.253906 326.148438 Z M 290.253906 326.148438 " fill-opacity="1" fill-rule="nonzero"/></g><g transform="matrix(1, 0, 0, 1, 52, 44)"><g clip-path="url(#97e070a085)"><g fill="#ffffff" fill-opacity="1"><g transform="translate(9.661487, 81.567116)"><g><path d="M 3.625 -0.484375 C 2.957031 -0.359375 2.316406 -0.523438 1.703125 -0.984375 C 1.085938 -1.453125 0.640625 -2.445312 0.359375 -3.96875 C 0.304688 -4.226562 0.269531 -4.457031 0.25 -4.65625 C 0.226562 -4.863281 0.210938 -5.015625 0.203125 -5.109375 C 0.109375 -6.078125 0.0195312 -7.28125 -0.0625 -8.71875 C -0.144531 -10.15625 -0.210938 -11.671875 -0.265625 -13.265625 C -0.316406 -14.867188 -0.351562 -16.410156 -0.375 -17.890625 C -0.40625 -19.378906 -0.410156 -20.6875 -0.390625 -21.8125 C -0.378906 -22.9375 -0.34375 -23.710938 -0.28125 -24.140625 C -0.15625 -24.890625 0.207031 -25.535156 0.8125 -26.078125 C 1.414062 -26.628906 2.078125 -26.96875 2.796875 -27.09375 C 3.410156 -27.207031 4 -27.132812 4.5625 -26.875 C 5.132812 -26.625 5.597656 -26.085938 5.953125 -25.265625 C 5.898438 -24.753906 5.832031 -23.875 5.75 -22.625 C 5.664062 -21.375 5.601562 -19.851562 5.5625 -18.0625 C 5.53125 -16.269531 5.546875 -14.300781 5.609375 -12.15625 C 5.679688 -10.007812 5.832031 -7.78125 6.0625 -5.46875 C 6.113281 -5.0625 6.164062 -4.585938 6.21875 -4.046875 C 6.28125 -3.515625 6.351562 -2.96875 6.4375 -2.40625 C 6.207031 -2.039062 5.832031 -1.65625 5.3125 -1.25 C 4.800781 -0.851562 4.238281 -0.597656 3.625 -0.484375 Z M 3.625 -0.484375 "/></g></g></g><g fill="#ffffff" fill-opacity="1"><g transform="translate(20.851372, 79.48072)"><g><path d="M 4.71875 -0.734375 C 3.84375 -0.566406 2.976562 -0.769531 2.125 -1.34375 C 1.269531 -1.925781 0.703125 -2.984375 0.421875 -4.515625 C 0.128906 -6.054688 -0.00390625 -7.570312 0.015625 -9.0625 C 0.046875 -10.550781 0.128906 -11.992188 0.265625 -13.390625 C 0.410156 -14.796875 0.519531 -16.125 0.59375 -17.375 C 0.675781 -18.632812 0.613281 -19.796875 0.40625 -20.859375 C 0.03125 -20.929688 -0.304688 -20.941406 -0.609375 -20.890625 C -1.046875 -20.804688 -1.378906 -20.601562 -1.609375 -20.28125 C -1.847656 -19.96875 -2.007812 -19.570312 -2.09375 -19.09375 L -2.46875 -19.140625 C -2.75 -20.796875 -2.75 -22.160156 -2.46875 -23.234375 C -2.195312 -24.304688 -1.734375 -25.125 -1.078125 -25.6875 C -0.421875 -26.25 0.300781 -26.601562 1.09375 -26.75 C 2.269531 -26.96875 3.394531 -26.78125 4.46875 -26.1875 C 5.539062 -25.59375 6.578125 -24.703125 7.578125 -23.515625 C 8.578125 -22.328125 9.507812 -20.945312 10.375 -19.375 C 11.238281 -17.800781 12.039062 -16.148438 12.78125 -14.421875 C 13.53125 -12.691406 14.179688 -10.96875 14.734375 -9.25 C 14.703125 -10.21875 14.632812 -11.40625 14.53125 -12.8125 C 14.4375 -14.21875 14.304688 -15.6875 14.140625 -17.21875 C 13.972656 -18.757812 13.757812 -20.21875 13.5 -21.59375 C 13.3125 -22.59375 13.109375 -23.492188 12.890625 -24.296875 C 12.671875 -25.097656 12.421875 -25.78125 12.140625 -26.34375 L 12.09375 -26.640625 C 12.582031 -27.441406 13.109375 -28.078125 13.671875 -28.546875 C 14.234375 -29.015625 14.785156 -29.300781 15.328125 -29.40625 C 16.128906 -29.550781 16.863281 -29.320312 17.53125 -28.71875 C 18.195312 -28.125 18.648438 -27.1875 18.890625 -25.90625 C 19.066406 -24.957031 19.148438 -23.773438 19.140625 -22.359375 C 19.140625 -20.953125 19.101562 -19.441406 19.03125 -17.828125 C 18.96875 -16.222656 18.9375 -14.65625 18.9375 -13.125 C 18.9375 -11.601562 19.035156 -10.25 19.234375 -9.0625 C 19.296875 -8.726562 19.382812 -8.375 19.5 -8 C 19.613281 -7.632812 19.894531 -7.492188 20.34375 -7.578125 C 20.394531 -7.484375 20.425781 -7.410156 20.4375 -7.359375 C 20.445312 -7.316406 20.457031 -7.269531 20.46875 -7.21875 C 20.601562 -6.320312 20.378906 -5.457031 19.796875 -4.625 C 19.222656 -3.800781 18.34375 -3.273438 17.15625 -3.046875 C 16.238281 -2.878906 15.414062 -2.972656 14.6875 -3.328125 C 13.957031 -3.679688 13.300781 -4.210938 12.71875 -4.921875 C 12.132812 -5.640625 11.601562 -6.472656 11.125 -7.421875 C 10.644531 -8.378906 10.175781 -9.363281 9.71875 -10.375 C 8.894531 -12.132812 8.070312 -13.800781 7.25 -15.375 C 6.4375 -16.945312 5.46875 -18.351562 4.34375 -19.59375 C 4.570312 -18.65625 4.734375 -17.613281 4.828125 -16.46875 C 4.929688 -15.320312 5.019531 -14.160156 5.09375 -12.984375 C 5.175781 -11.804688 5.316406 -10.6875 5.515625 -9.625 C 5.691406 -8.675781 5.9375 -7.820312 6.25 -7.0625 C 6.570312 -6.300781 7 -5.65625 7.53125 -5.125 C 7.75 -3.957031 7.550781 -2.972656 6.9375 -2.171875 C 6.332031 -1.378906 5.59375 -0.898438 4.71875 -0.734375 Z M 4.71875 -0.734375 "/></g></g></g><g fill="#ffffff" fill-opacity="1"><g transform="translate(45.540144, 74.877406)"><g><path d="M 7.265625 -1.125 C 5.679688 -0.832031 4.316406 -0.863281 3.171875 -1.21875 C 2.035156 -1.570312 1.140625 -2.128906 0.484375 -2.890625 C -0.160156 -3.648438 -0.570312 -4.476562 -0.75 -5.375 C -0.90625 -6.257812 -0.847656 -7.132812 -0.578125 -8 C -0.304688 -8.875 0.175781 -9.644531 0.875 -10.3125 C 1.582031 -10.976562 2.484375 -11.410156 3.578125 -11.609375 C 3.597656 -11.398438 3.625 -11.207031 3.65625 -11.03125 C 3.6875 -10.851562 3.703125 -10.765625 3.703125 -10.765625 C 3.992188 -9.179688 4.378906 -7.960938 4.859375 -7.109375 C 5.335938 -6.253906 5.847656 -5.671875 6.390625 -5.359375 C 6.929688 -5.054688 7.457031 -4.953125 7.96875 -5.046875 C 8.71875 -5.179688 9.328125 -5.601562 9.796875 -6.3125 C 10.273438 -7.03125 10.441406 -7.796875 10.296875 -8.609375 C 10.128906 -9.503906 9.597656 -10.222656 8.703125 -10.765625 C 7.804688 -11.316406 6.6875 -11.898438 5.34375 -12.515625 C 4.59375 -12.890625 3.785156 -13.316406 2.921875 -13.796875 C 2.054688 -14.285156 1.28125 -14.910156 0.59375 -15.671875 C -0.0820312 -16.441406 -0.53125 -17.421875 -0.75 -18.609375 C -0.976562 -19.835938 -0.890625 -20.976562 -0.484375 -22.03125 C -0.0859375 -23.09375 0.53125 -24.039062 1.375 -24.875 C 2.21875 -25.707031 3.175781 -26.398438 4.25 -26.953125 C 5.332031 -27.515625 6.441406 -27.898438 7.578125 -28.109375 C 8.984375 -28.367188 10.175781 -28.351562 11.15625 -28.0625 C 12.132812 -27.78125 12.914062 -27.328125 13.5 -26.703125 C 14.09375 -26.078125 14.457031 -25.390625 14.59375 -24.640625 C 14.726562 -23.921875 14.660156 -23.195312 14.390625 -22.46875 C 14.117188 -21.75 13.640625 -21.113281 12.953125 -20.5625 C 12.273438 -20.019531 11.378906 -19.644531 10.265625 -19.4375 C 10.273438 -19.789062 10.265625 -20.101562 10.234375 -20.375 C 10.210938 -20.65625 10.179688 -20.898438 10.140625 -21.109375 C 9.921875 -22.296875 9.507812 -23.097656 8.90625 -23.515625 C 8.300781 -23.929688 7.691406 -24.082031 7.078125 -23.96875 C 6.484375 -23.851562 5.953125 -23.523438 5.484375 -22.984375 C 5.023438 -22.441406 4.882812 -21.6875 5.0625 -20.71875 C 5.21875 -19.882812 5.570312 -19.210938 6.125 -18.703125 C 6.675781 -18.203125 7.34375 -17.789062 8.125 -17.46875 C 8.90625 -17.15625 9.722656 -16.851562 10.578125 -16.5625 C 11.460938 -16.289062 12.328125 -15.96875 13.171875 -15.59375 C 14.023438 -15.226562 14.757812 -14.75 15.375 -14.15625 C 16 -13.5625 16.410156 -12.742188 16.609375 -11.703125 C 16.804688 -10.617188 16.703125 -9.503906 16.296875 -8.359375 C 15.898438 -7.210938 15.265625 -6.148438 14.390625 -5.171875 C 13.523438 -4.191406 12.484375 -3.335938 11.265625 -2.609375 C 10.046875 -1.890625 8.710938 -1.394531 7.265625 -1.125 Z M 7.265625 -1.125 "/></g></g></g><g fill="#ffffff" fill-opacity="1"><g transform="translate(64.829362, 71.28086)"><g><path d="M 5.25 -0.828125 C 4.019531 -0.597656 2.929688 -0.914062 1.984375 -1.78125 C 1.046875 -2.644531 0.414062 -3.941406 0.09375 -5.671875 C -0.113281 -6.785156 -0.210938 -8.03125 -0.203125 -9.40625 C -0.191406 -10.789062 -0.132812 -12.179688 -0.03125 -13.578125 C 0.0703125 -14.972656 0.148438 -16.253906 0.203125 -17.421875 C 0.265625 -18.597656 0.234375 -19.503906 0.109375 -20.140625 C -0.046875 -20.960938 -0.375 -21.328125 -0.875 -21.234375 C -1.207031 -21.171875 -1.539062 -20.921875 -1.875 -20.484375 C -2.207031 -20.054688 -2.414062 -19.539062 -2.5 -18.9375 L -2.890625 -19.03125 C -3.078125 -20.4375 -2.953125 -21.691406 -2.515625 -22.796875 C -2.085938 -23.910156 -1.472656 -24.816406 -0.671875 -25.515625 C 0.128906 -26.210938 0.96875 -26.644531 1.84375 -26.8125 C 2.757812 -26.976562 3.609375 -26.796875 4.390625 -26.265625 C 5.179688 -25.742188 5.710938 -24.75 5.984375 -23.28125 C 6.171875 -22.289062 6.242188 -21.148438 6.203125 -19.859375 C 6.160156 -18.578125 6.070312 -17.269531 5.9375 -15.9375 C 5.8125 -14.601562 5.71875 -13.34375 5.65625 -12.15625 C 5.59375 -10.976562 5.632812 -9.992188 5.78125 -9.203125 C 5.882812 -8.640625 6.0625 -8.207031 6.3125 -7.90625 C 6.5625 -7.601562 6.914062 -7.492188 7.375 -7.578125 C 8.007812 -7.703125 8.609375 -8.148438 9.171875 -8.921875 C 9.734375 -9.703125 10.242188 -10.644531 10.703125 -11.75 C 11.160156 -12.851562 11.5625 -13.929688 11.90625 -14.984375 C 11.675781 -18.316406 11.734375 -21.019531 12.078125 -23.09375 C 12.429688 -25.175781 12.945312 -26.722656 13.625 -27.734375 C 14.3125 -28.742188 15.019531 -29.316406 15.75 -29.453125 C 16.53125 -29.597656 17.257812 -29.332031 17.9375 -28.65625 C 18.613281 -27.976562 19.066406 -27.023438 19.296875 -25.796875 C 19.492188 -24.710938 19.453125 -23.441406 19.171875 -21.984375 C 18.898438 -20.523438 18.234375 -18.96875 17.171875 -17.3125 C 17.171875 -16.445312 17.195312 -15.554688 17.25 -14.640625 C 17.3125 -13.722656 17.421875 -12.867188 17.578125 -12.078125 C 17.765625 -11.046875 18.03125 -10.21875 18.375 -9.59375 C 18.726562 -8.96875 19.1875 -8.707031 19.75 -8.8125 C 20.132812 -8.875 20.460938 -9.109375 20.734375 -9.515625 C 21.015625 -9.921875 21.207031 -10.488281 21.3125 -11.21875 L 21.640625 -11.109375 C 22.066406 -8.816406 21.921875 -6.992188 21.203125 -5.640625 C 20.492188 -4.285156 19.5 -3.488281 18.21875 -3.25 C 17.0625 -3.03125 15.984375 -3.421875 14.984375 -4.421875 C 13.984375 -5.421875 13.15625 -7.285156 12.5 -10.015625 C 11.6875 -7.160156 10.597656 -4.976562 9.234375 -3.46875 C 7.878906 -1.957031 6.550781 -1.078125 5.25 -0.828125 Z M 5.25 -0.828125 "/></g></g></g><g fill="#ffffff" fill-opacity="1"><g transform="translate(88.843189, 66.803392)"><g><path d="M 17.90625 -3.078125 C 17.082031 -2.921875 16.332031 -2.992188 15.65625 -3.296875 C 14.976562 -3.609375 14.351562 -4.050781 13.78125 -4.625 C 13.21875 -5.207031 12.703125 -5.863281 12.234375 -6.59375 C 11.765625 -7.332031 11.328125 -8.046875 10.921875 -8.734375 C 10.265625 -9.835938 9.675781 -10.796875 9.15625 -11.609375 C 8.644531 -12.429688 8.113281 -13.113281 7.5625 -13.65625 C 7.445312 -11.769531 7.40625 -9.972656 7.4375 -8.265625 C 7.476562 -6.554688 7.65625 -4.679688 7.96875 -2.640625 C 7.613281 -2.140625 7.1875 -1.734375 6.6875 -1.421875 C 6.195312 -1.117188 5.679688 -0.914062 5.140625 -0.8125 C 4.316406 -0.65625 3.53125 -0.804688 2.78125 -1.265625 C 2.03125 -1.722656 1.523438 -2.640625 1.265625 -4.015625 C 1.085938 -4.960938 1.03125 -6.054688 1.09375 -7.296875 C 1.164062 -8.535156 1.289062 -9.816406 1.46875 -11.140625 C 1.65625 -12.472656 1.847656 -13.773438 2.046875 -15.046875 C 2.253906 -16.316406 2.40625 -17.457031 2.5 -18.46875 C 2.601562 -19.476562 2.601562 -20.265625 2.5 -20.828125 C 2.394531 -21.421875 2.144531 -21.679688 1.75 -21.609375 C 1.300781 -21.515625 0.816406 -21.070312 0.296875 -20.28125 C -0.210938 -19.5 -0.6875 -18.441406 -1.125 -17.109375 L -1.359375 -17.125 C -1.617188 -18.550781 -1.546875 -19.875 -1.140625 -21.09375 C -0.734375 -22.320312 -0.0703125 -23.421875 0.84375 -24.390625 C 1.757812 -25.367188 2.867188 -26.1875 4.171875 -26.84375 C 5.472656 -27.507812 6.878906 -27.984375 8.390625 -28.265625 C 10.410156 -28.640625 12.109375 -28.628906 13.484375 -28.234375 C 14.859375 -27.847656 15.9375 -27.21875 16.71875 -26.34375 C 17.507812 -25.46875 18.007812 -24.472656 18.21875 -23.359375 C 18.425781 -22.222656 18.34375 -21.054688 17.96875 -19.859375 C 17.59375 -18.660156 16.941406 -17.601562 16.015625 -16.6875 C 15.097656 -15.769531 13.929688 -15.113281 12.515625 -14.71875 C 13.078125 -14.425781 13.59375 -14.023438 14.0625 -13.515625 C 14.53125 -13.003906 15.019531 -12.414062 15.53125 -11.75 C 15.988281 -11.15625 16.492188 -10.597656 17.046875 -10.078125 C 17.609375 -9.554688 18.28125 -9.367188 19.0625 -9.515625 C 19.46875 -9.597656 19.78125 -9.757812 20 -10 C 20.226562 -10.25 20.394531 -10.625 20.5 -11.125 L 20.734375 -11.0625 C 20.910156 -10.738281 21.046875 -10.410156 21.140625 -10.078125 C 21.242188 -9.753906 21.320312 -9.445312 21.375 -9.15625 C 21.65625 -7.664062 21.472656 -6.34375 20.828125 -5.1875 C 20.191406 -4.03125 19.21875 -3.328125 17.90625 -3.078125 Z M 8.734375 -17.25 C 9.585938 -17.40625 10.289062 -17.738281 10.84375 -18.25 C 11.40625 -18.757812 11.800781 -19.335938 12.03125 -19.984375 C 12.269531 -20.628906 12.332031 -21.25 12.21875 -21.84375 C 12.082031 -22.570312 11.679688 -23.160156 11.015625 -23.609375 C 10.347656 -24.066406 9.390625 -24.175781 8.140625 -23.9375 C 7.953125 -23.90625 7.757812 -23.863281 7.5625 -23.8125 C 7.375 -23.769531 7.179688 -23.710938 6.984375 -23.640625 C 7.035156 -23.484375 7.078125 -23.328125 7.109375 -23.171875 C 7.140625 -23.023438 7.15625 -22.953125 7.15625 -22.953125 C 7.351562 -21.867188 7.503906 -20.804688 7.609375 -19.765625 C 7.722656 -18.734375 7.769531 -17.859375 7.75 -17.140625 C 7.914062 -17.140625 8.082031 -17.148438 8.25 -17.171875 C 8.414062 -17.191406 8.578125 -17.21875 8.734375 -17.25 Z M 8.734375 -17.25 "/></g></g></g><g fill="#ffffff" fill-opacity="1"><g transform="translate(112.430739, 62.405405)"><g><path d="M 7.515625 -1.140625 C 5.921875 -0.847656 4.546875 -0.890625 3.390625 -1.265625 C 2.242188 -1.648438 1.332031 -2.265625 0.65625 -3.109375 C -0.0078125 -3.953125 -0.445312 -4.914062 -0.65625 -6 C -0.832031 -6.976562 -0.816406 -7.976562 -0.609375 -9 C -0.410156 -10.019531 -0.0078125 -10.988281 0.59375 -11.90625 C 1.195312 -12.832031 1.988281 -13.617188 2.96875 -14.265625 C 1.882812 -14.691406 1.015625 -15.289062 0.359375 -16.0625 C -0.285156 -16.84375 -0.695312 -17.707031 -0.875 -18.65625 C -1.101562 -19.894531 -0.921875 -21.164062 -0.328125 -22.46875 C 0.265625 -23.78125 1.253906 -24.957031 2.640625 -26 C 4.035156 -27.050781 5.816406 -27.78125 7.984375 -28.1875 C 9.460938 -28.457031 10.679688 -28.492188 11.640625 -28.296875 C 12.597656 -28.097656 13.332031 -27.742188 13.84375 -27.234375 C 14.363281 -26.734375 14.6875 -26.148438 14.8125 -25.484375 C 14.957031 -24.722656 14.859375 -23.925781 14.515625 -23.09375 C 14.179688 -22.257812 13.613281 -21.519531 12.8125 -20.875 C 12.019531 -20.238281 10.984375 -19.800781 9.703125 -19.5625 C 9.867188 -20.75 9.882812 -21.710938 9.75 -22.453125 C 9.613281 -23.179688 9.359375 -23.679688 8.984375 -23.953125 C 8.609375 -24.234375 8.203125 -24.332031 7.765625 -24.25 C 7.285156 -24.15625 6.8125 -23.878906 6.34375 -23.421875 C 5.875 -22.972656 5.523438 -22.394531 5.296875 -21.6875 C 5.066406 -20.976562 5.03125 -20.195312 5.1875 -19.34375 C 5.269531 -18.894531 5.429688 -18.40625 5.671875 -17.875 C 5.921875 -17.34375 6.253906 -16.835938 6.671875 -16.359375 C 7.128906 -16.773438 7.554688 -17.101562 7.953125 -17.34375 C 8.359375 -17.582031 8.742188 -17.734375 9.109375 -17.796875 C 9.835938 -17.929688 10.410156 -17.773438 10.828125 -17.328125 C 11.253906 -16.890625 11.53125 -16.347656 11.65625 -15.703125 C 11.800781 -14.941406 11.707031 -14.175781 11.375 -13.40625 C 11.039062 -12.632812 10.421875 -12.164062 9.515625 -12 C 8.691406 -11.84375 7.648438 -12.050781 6.390625 -12.625 C 5.265625 -11.457031 4.816406 -10.25 5.046875 -9 C 5.222656 -8.03125 5.660156 -7.351562 6.359375 -6.96875 C 7.054688 -6.582031 7.878906 -6.476562 8.828125 -6.65625 C 10.035156 -6.882812 11.304688 -7.554688 12.640625 -8.671875 C 13.972656 -9.785156 15.066406 -11.289062 15.921875 -13.1875 L 16.234375 -13.046875 C 16.492188 -11.390625 16.425781 -9.878906 16.03125 -8.515625 C 15.632812 -7.160156 15.007812 -5.972656 14.15625 -4.953125 C 13.3125 -3.941406 12.3125 -3.113281 11.15625 -2.46875 C 10.007812 -1.820312 8.796875 -1.378906 7.515625 -1.140625 Z M 7.515625 -1.140625 "/></g></g></g><g fill="#ffffff" fill-opacity="1"><g transform="translate(131.506818, 58.848599)"><g><path d="M 10.390625 -1.671875 C 9.460938 -1.503906 8.503906 -1.4375 7.515625 -1.46875 C 6.523438 -1.507812 5.59375 -1.6875 4.71875 -2 C 3.84375 -2.320312 3.085938 -2.804688 2.453125 -3.453125 C 1.828125 -4.109375 1.414062 -4.957031 1.21875 -6 C 1.195312 -6.125 1.175781 -6.238281 1.15625 -6.34375 C 1.132812 -6.445312 1.117188 -6.582031 1.109375 -6.75 C 1.066406 -7.40625 1.082031 -8.226562 1.15625 -9.21875 C 1.238281 -10.21875 1.34375 -11.28125 1.46875 -12.40625 C 1.601562 -13.53125 1.734375 -14.644531 1.859375 -15.75 C 1.984375 -16.851562 2.070312 -17.859375 2.125 -18.765625 C 2.1875 -19.671875 2.164062 -20.382812 2.0625 -20.90625 C 1.957031 -21.46875 1.75 -21.71875 1.4375 -21.65625 C 1.132812 -21.601562 0.726562 -21.222656 0.21875 -20.515625 C -0.289062 -19.816406 -0.816406 -18.695312 -1.359375 -17.15625 L -1.59375 -17.203125 C -1.945312 -19.117188 -1.816406 -20.835938 -1.203125 -22.359375 C -0.597656 -23.890625 0.429688 -25.160156 1.890625 -26.171875 C 3.359375 -27.191406 5.1875 -27.90625 7.375 -28.3125 C 9.40625 -28.6875 11.207031 -28.707031 12.78125 -28.375 C 14.363281 -28.050781 15.71875 -27.457031 16.84375 -26.59375 C 17.976562 -25.726562 18.894531 -24.664062 19.59375 -23.40625 C 20.300781 -22.15625 20.789062 -20.796875 21.0625 -19.328125 C 21.394531 -17.554688 21.410156 -15.710938 21.109375 -13.796875 C 20.816406 -11.890625 20.222656 -10.085938 19.328125 -8.390625 C 18.429688 -6.691406 17.226562 -5.242188 15.71875 -4.046875 C 14.21875 -2.847656 12.441406 -2.054688 10.390625 -1.671875 Z M 10.109375 -6.484375 C 11.054688 -6.660156 11.863281 -7.097656 12.53125 -7.796875 C 13.195312 -8.492188 13.726562 -9.351562 14.125 -10.375 C 14.519531 -11.40625 14.765625 -12.507812 14.859375 -13.6875 C 14.960938 -14.875 14.90625 -16.039062 14.6875 -17.1875 C 14.4375 -18.53125 13.96875 -19.75 13.28125 -20.84375 C 12.601562 -21.945312 11.6875 -22.769531 10.53125 -23.3125 C 9.375 -23.863281 7.984375 -23.988281 6.359375 -23.6875 C 6.554688 -23.257812 6.726562 -22.8125 6.875 -22.34375 C 7.03125 -21.875 7.148438 -21.394531 7.234375 -20.90625 C 7.441406 -19.8125 7.550781 -18.675781 7.5625 -17.5 C 7.582031 -16.332031 7.566406 -15.191406 7.515625 -14.078125 C 7.460938 -12.960938 7.421875 -11.921875 7.390625 -10.953125 C 7.359375 -9.992188 7.410156 -9.160156 7.546875 -8.453125 C 7.679688 -7.722656 7.941406 -7.171875 8.328125 -6.796875 C 8.710938 -6.429688 9.304688 -6.328125 10.109375 -6.484375 Z M 10.109375 -6.484375 "/></g></g></g><g fill="#ffffff" fill-opacity="1"><g transform="translate(155.94695, 54.291645)"><g/></g></g><g fill="#ffffff" fill-opacity="1"><g transform="translate(162.341171, 53.099418)"><g><path d="M 9.546875 -1.515625 C 7.378906 -1.117188 5.535156 -1.191406 4.015625 -1.734375 C 2.492188 -2.285156 1.566406 -3.472656 1.234375 -5.296875 C 1.191406 -5.484375 1.160156 -5.65625 1.140625 -5.8125 C 1.128906 -5.976562 1.125 -6.109375 1.125 -6.203125 C 1.09375 -6.890625 1.140625 -7.742188 1.265625 -8.765625 C 1.390625 -9.785156 1.550781 -10.882812 1.75 -12.0625 C 1.945312 -13.25 2.132812 -14.410156 2.3125 -15.546875 C 2.5 -16.679688 2.640625 -17.710938 2.734375 -18.640625 C 2.828125 -19.578125 2.820312 -20.316406 2.71875 -20.859375 C 2.601562 -21.484375 2.347656 -21.757812 1.953125 -21.6875 C 1.492188 -21.601562 1 -21.160156 0.46875 -20.359375 C -0.0625 -19.554688 -0.582031 -18.484375 -1.09375 -17.140625 L -1.328125 -17.21875 C -1.617188 -18.78125 -1.5625 -20.1875 -1.15625 -21.4375 C -0.757812 -22.6875 -0.125 -23.78125 0.75 -24.71875 C 1.632812 -25.65625 2.671875 -26.414062 3.859375 -27 C 5.046875 -27.582031 6.28125 -27.992188 7.5625 -28.234375 C 9.15625 -28.523438 10.695312 -28.546875 12.1875 -28.296875 C 13.675781 -28.054688 14.953125 -27.546875 16.015625 -26.765625 C 17.085938 -25.984375 17.75 -24.90625 18 -23.53125 C 18.457031 -21.070312 17.3125 -18.875 14.5625 -16.9375 C 16.40625 -16.863281 17.828125 -16.429688 18.828125 -15.640625 C 19.835938 -14.859375 20.453125 -13.882812 20.671875 -12.71875 C 20.859375 -11.695312 20.742188 -10.613281 20.328125 -9.46875 C 19.921875 -8.332031 19.242188 -7.226562 18.296875 -6.15625 C 17.347656 -5.082031 16.132812 -4.128906 14.65625 -3.296875 C 13.175781 -2.472656 11.472656 -1.878906 9.546875 -1.515625 Z M 8.109375 -16.859375 C 9.203125 -17.023438 10.117188 -17.367188 10.859375 -17.890625 C 11.609375 -18.410156 12.160156 -19.003906 12.515625 -19.671875 C 12.878906 -20.335938 13.003906 -20.976562 12.890625 -21.59375 C 12.734375 -22.394531 12.171875 -23.03125 11.203125 -23.5 C 10.234375 -23.96875 8.835938 -24.035156 7.015625 -23.703125 C 7.203125 -23.273438 7.351562 -22.835938 7.46875 -22.390625 C 7.59375 -21.941406 7.695312 -21.503906 7.78125 -21.078125 C 7.90625 -20.390625 7.984375 -19.691406 8.015625 -18.984375 C 8.054688 -18.285156 8.085938 -17.578125 8.109375 -16.859375 Z M 9.703125 -6.03125 C 10.734375 -6.21875 11.597656 -6.59375 12.296875 -7.15625 C 12.992188 -7.71875 13.507812 -8.363281 13.84375 -9.09375 C 14.175781 -9.832031 14.28125 -10.546875 14.15625 -11.234375 C 13.976562 -12.179688 13.363281 -12.972656 12.3125 -13.609375 C 11.269531 -14.253906 9.769531 -14.492188 7.8125 -14.328125 C 7.851562 -13.566406 7.800781 -12.742188 7.65625 -11.859375 C 7.507812 -10.984375 7.378906 -10.140625 7.265625 -9.328125 C 7.148438 -8.523438 7.144531 -7.835938 7.25 -7.265625 C 7.34375 -6.773438 7.566406 -6.40625 7.921875 -6.15625 C 8.285156 -5.914062 8.878906 -5.875 9.703125 -6.03125 Z M 9.703125 -6.03125 "/></g></g></g><g fill="#ffffff" fill-opacity="1"><g transform="translate(185.715581, 48.741172)"><g><path d="M 10.46875 -1.8125 C 9.8125 -1.6875 9.1875 -1.6875 8.59375 -1.8125 C 8 -1.945312 7.539062 -2.175781 7.21875 -2.5 C 7.351562 -3.8125 7.390625 -5.222656 7.328125 -6.734375 C 7.265625 -8.242188 7.097656 -9.71875 6.828125 -11.15625 C 6.492188 -12.957031 6.007812 -14.613281 5.375 -16.125 C 4.75 -17.644531 4.007812 -18.828125 3.15625 -19.671875 C 2.300781 -20.515625 1.34375 -20.832031 0.28125 -20.625 C -0.53125 -20.476562 -1.382812 -19.984375 -2.28125 -19.140625 L -2.65625 -19.21875 C -2.925781 -21.28125 -2.71875 -22.972656 -2.03125 -24.296875 C -1.34375 -25.617188 -0.3125 -26.40625 1.0625 -26.65625 C 2.050781 -26.84375 3.003906 -26.726562 3.921875 -26.3125 C 4.847656 -25.90625 5.710938 -25.285156 6.515625 -24.453125 C 7.328125 -23.617188 8.070312 -22.65625 8.75 -21.5625 C 9.4375 -20.46875 10.035156 -19.332031 10.546875 -18.15625 C 10.617188 -20.6875 10.929688 -22.769531 11.484375 -24.40625 C 12.035156 -26.039062 12.71875 -27.285156 13.53125 -28.140625 C 14.351562 -28.992188 15.207031 -29.5 16.09375 -29.65625 C 17.207031 -29.863281 18.242188 -29.59375 19.203125 -28.84375 C 20.160156 -28.09375 20.769531 -27.003906 21.03125 -25.578125 C 21.175781 -24.796875 21.191406 -23.929688 21.078125 -22.984375 C 20.328125 -23.222656 19.5625 -23.269531 18.78125 -23.125 C 17.757812 -22.9375 16.789062 -22.445312 15.875 -21.65625 C 14.96875 -20.863281 14.195312 -19.835938 13.5625 -18.578125 C 12.9375 -17.316406 12.523438 -15.894531 12.328125 -14.3125 C 12.628906 -13.09375 12.867188 -12.035156 13.046875 -11.140625 C 13.273438 -9.910156 13.414062 -8.738281 13.46875 -7.625 C 13.519531 -6.519531 13.492188 -5.210938 13.390625 -3.703125 C 13.023438 -3.160156 12.582031 -2.734375 12.0625 -2.421875 C 11.550781 -2.109375 11.019531 -1.90625 10.46875 -1.8125 Z M 10.46875 -1.8125 "/></g></g></g><g fill="#ffffff" fill-opacity="1"><g transform="translate(210.001995, 44.212879)"><g/></g></g><g fill="#ffffff" fill-opacity="1"><g transform="translate(96.286623, 105.69233)"><g><path d="M 17.90625 -3.078125 C 17.082031 -2.921875 16.332031 -2.992188 15.65625 -3.296875 C 14.976562 -3.609375 14.351562 -4.050781 13.78125 -4.625 C 13.21875 -5.207031 12.703125 -5.863281 12.234375 -6.59375 C 11.765625 -7.332031 11.328125 -8.046875 10.921875 -8.734375 C 10.265625 -9.835938 9.675781 -10.796875 9.15625 -11.609375 C 8.644531 -12.429688 8.113281 -13.113281 7.5625 -13.65625 C 7.445312 -11.769531 7.40625 -9.972656 7.4375 -8.265625 C 7.476562 -6.554688 7.65625 -4.679688 7.96875 -2.640625 C 7.613281 -2.140625 7.1875 -1.734375 6.6875 -1.421875 C 6.195312 -1.117188 5.679688 -0.914062 5.140625 -0.8125 C 4.316406 -0.65625 3.53125 -0.804688 2.78125 -1.265625 C 2.03125 -1.722656 1.523438 -2.640625 1.265625 -4.015625 C 1.085938 -4.960938 1.03125 -6.054688 1.09375 -7.296875 C 1.164062 -8.535156 1.289062 -9.816406 1.46875 -11.140625 C 1.65625 -12.472656 1.847656 -13.773438 2.046875 -15.046875 C 2.253906 -16.316406 2.40625 -17.457031 2.5 -18.46875 C 2.601562 -19.476562 2.601562 -20.265625 2.5 -20.828125 C 2.394531 -21.421875 2.144531 -21.679688 1.75 -21.609375 C 1.300781 -21.515625 0.816406 -21.070312 0.296875 -20.28125 C -0.210938 -19.5 -0.6875 -18.441406 -1.125 -17.109375 L -1.359375 -17.125 C -1.617188 -18.550781 -1.546875 -19.875 -1.140625 -21.09375 C -0.734375 -22.320312 -0.0703125 -23.421875 0.84375 -24.390625 C 1.757812 -25.367188 2.867188 -26.1875 4.171875 -26.84375 C 5.472656 -27.507812 6.878906 -27.984375 8.390625 -28.265625 C 10.410156 -28.640625 12.109375 -28.628906 13.484375 -28.234375 C 14.859375 -27.847656 15.9375 -27.21875 16.71875 -26.34375 C 17.507812 -25.46875 18.007812 -24.472656 18.21875 -23.359375 C 18.425781 -22.222656 18.34375 -21.054688 17.96875 -19.859375 C 17.59375 -18.660156 16.941406 -17.601562 16.015625 -16.6875 C 15.097656 -15.769531 13.929688 -15.113281 12.515625 -14.71875 C 13.078125 -14.425781 13.59375 -14.023438 14.0625 -13.515625 C 14.53125 -13.003906 15.019531 -12.414062 15.53125 -11.75 C 15.988281 -11.15625 16.492188 -10.597656 17.046875 -10.078125 C 17.609375 -9.554688 18.28125 -9.367188 19.0625 -9.515625 C 19.46875 -9.597656 19.78125 -9.757812 20 -10 C 20.226562 -10.25 20.394531 -10.625 20.5 -11.125 L 20.734375 -11.0625 C 20.910156 -10.738281 21.046875 -10.410156 21.140625 -10.078125 C 21.242188 -9.753906 21.320312 -9.445312 21.375 -9.15625 C 21.65625 -7.664062 21.472656 -6.34375 20.828125 -5.1875 C 20.191406 -4.03125 19.21875 -3.328125 17.90625 -3.078125 Z M 8.734375 -17.25 C 9.585938 -17.40625 10.289062 -17.738281 10.84375 -18.25 C 11.40625 -18.757812 11.800781 -19.335938 12.03125 -19.984375 C 12.269531 -20.628906 12.332031 -21.25 12.21875 -21.84375 C 12.082031 -22.570312 11.679688 -23.160156 11.015625 -23.609375 C 10.347656 -24.066406 9.390625 -24.175781 8.140625 -23.9375 C 7.953125 -23.90625 7.757812 -23.863281 7.5625 -23.8125 C 7.375 -23.769531 7.179688 -23.710938 6.984375 -23.640625 C 7.035156 -23.484375 7.078125 -23.328125 7.109375 -23.171875 C 7.140625 -23.023438 7.15625 -22.953125 7.15625 -22.953125 C 7.351562 -21.867188 7.503906 -20.804688 7.609375 -19.765625 C 7.722656 -18.734375 7.769531 -17.859375 7.75 -17.140625 C 7.914062 -17.140625 8.082031 -17.148438 8.25 -17.171875 C 8.414062 -17.191406 8.578125 -17.21875 8.734375 -17.25 Z M 8.734375 -17.25 "/></g></g></g><g fill="#ffffff" fill-opacity="1"><g transform="translate(119.874173, 101.294343)"><g><path d="M 10.390625 -1.671875 C 9.460938 -1.503906 8.503906 -1.4375 7.515625 -1.46875 C 6.523438 -1.507812 5.59375 -1.6875 4.71875 -2 C 3.84375 -2.320312 3.085938 -2.804688 2.453125 -3.453125 C 1.828125 -4.109375 1.414062 -4.957031 1.21875 -6 C 1.195312 -6.125 1.175781 -6.238281 1.15625 -6.34375 C 1.132812 -6.445312 1.117188 -6.582031 1.109375 -6.75 C 1.066406 -7.40625 1.082031 -8.226562 1.15625 -9.21875 C 1.238281 -10.21875 1.34375 -11.28125 1.46875 -12.40625 C 1.601562 -13.53125 1.734375 -14.644531 1.859375 -15.75 C 1.984375 -16.851562 2.070312 -17.859375 2.125 -18.765625 C 2.1875 -19.671875 2.164062 -20.382812 2.0625 -20.90625 C 1.957031 -21.46875 1.75 -21.71875 1.4375 -21.65625 C 1.132812 -21.601562 0.726562 -21.222656 0.21875 -20.515625 C -0.289062 -19.816406 -0.816406 -18.695312 -1.359375 -17.15625 L -1.59375 -17.203125 C -1.945312 -19.117188 -1.816406 -20.835938 -1.203125 -22.359375 C -0.597656 -23.890625 0.429688 -25.160156 1.890625 -26.171875 C 3.359375 -27.191406 5.1875 -27.90625 7.375 -28.3125 C 9.40625 -28.6875 11.207031 -28.707031 12.78125 -28.375 C 14.363281 -28.050781 15.71875 -27.457031 16.84375 -26.59375 C 17.976562 -25.726562 18.894531 -24.664062 19.59375 -23.40625 C 20.300781 -22.15625 20.789062 -20.796875 21.0625 -19.328125 C 21.394531 -17.554688 21.410156 -15.710938 21.109375 -13.796875 C 20.816406 -11.890625 20.222656 -10.085938 19.328125 -8.390625 C 18.429688 -6.691406 17.226562 -5.242188 15.71875 -4.046875 C 14.21875 -2.847656 12.441406 -2.054688 10.390625 -1.671875 Z M 10.109375 -6.484375 C 11.054688 -6.660156 11.863281 -7.097656 12.53125 -7.796875 C 13.195312 -8.492188 13.726562 -9.351562 14.125 -10.375 C 14.519531 -11.40625 14.765625 -12.507812 14.859375 -13.6875 C 14.960938 -14.875 14.90625 -16.039062 14.6875 -17.1875 C 14.4375 -18.53125 13.96875 -19.75 13.28125 -20.84375 C 12.601562 -21.945312 11.6875 -22.769531 10.53125 -23.3125 C 9.375 -23.863281 7.984375 -23.988281 6.359375 -23.6875 C 6.554688 -23.257812 6.726562 -22.8125 6.875 -22.34375 C 7.03125 -21.875 7.148438 -21.394531 7.234375 -20.90625 C 7.441406 -19.8125 7.550781 -18.675781 7.5625 -17.5 C 7.582031 -16.332031 7.566406 -15.191406 7.515625 -14.078125 C 7.460938 -12.960938 7.421875 -11.921875 7.390625 -10.953125 C 7.359375 -9.992188 7.410156 -9.160156 7.546875 -8.453125 C 7.679688 -7.722656 7.941406 -7.171875 8.328125 -6.796875 C 8.710938 -6.429688 9.304688 -6.328125 10.109375 -6.484375 Z M 10.109375 -6.484375 "/></g></g></g></g></g></svg>